<svg xmlns="http://www.w3.org/2000/svg" viewBox="0 0 1600 900" role="img" aria-label="Mario inspired landscape with stars, bricks, coins, pipes, and piranha plant">
  <defs>
    <linearGradient id="sky" x1="0" x2="0" y1="0" y2="1">
      <stop offset="0%" stop-color="#4ec0ff" />
      <stop offset="100%" stop-color="#5bd7ff" />
    </linearGradient>
    <linearGradient id="ground" x1="0" x2="0" y1="0" y2="1">
      <stop offset="0%" stop-color="#8b4513" />
      <stop offset="100%" stop-color="#5f2a0c" />
    </linearGradient>
    <pattern id="brick" width="120" height="60" patternUnits="userSpaceOnUse">
      <rect width="120" height="60" fill="#b45f23" />
      <rect x="3" y="3" width="114" height="54" fill="#c66b2d" />
      <path d="M0 30h120M60 0v60" stroke="#9a4816" stroke-width="6" />
    </pattern>
    <radialGradient id="coin" cx="50%" cy="50%" r="70%">
      <stop offset="0%" stop-color="#ffe566" />
      <stop offset="100%" stop-color="#f3b32c" />
    </radialGradient>
  </defs>
  <rect width="1600" height="900" fill="url(#sky)" />
  <rect y="720" width="1600" height="180" fill="url(#ground)" />
  <rect y="700" width="1600" height="20" fill="#6a3a0d" />
  <g fill="#9bff73" opacity="0.9">
    <circle cx="200" cy="820" r="8" />
    <circle cx="240" cy="810" r="10" />
    <circle cx="280" cy="825" r="12" />
    <circle cx="1260" cy="830" r="10" />
    <circle cx="1300" cy="820" r="9" />
    <circle cx="1340" cy="835" r="11" />
  </g>
  <g>
    <rect x="80" y="540" width="120" height="120" rx="12" ry="12" fill="url(#brick)" />
    <rect x="200" y="540" width="120" height="120" rx="12" ry="12" fill="url(#brick)" />
    <rect x="320" y="540" width="120" height="120" rx="12" ry="12" fill="url(#brick)" />
    <rect x="560" y="540" width="120" height="120" rx="12" ry="12" fill="url(#brick)" />
    <rect x="680" y="540" width="120" height="120" rx="12" ry="12" fill="url(#brick)" />
    <rect x="800" y="540" width="120" height="120" rx="12" ry="12" fill="url(#brick)" />
  </g>
  <g>
    <rect x="440" y="540" width="120" height="120" rx="12" ry="12" fill="#f6c343" stroke="#b15c00" stroke-width="10" />
    <circle cx="470" cy="570" r="6" fill="#fff8d4" />
    <circle cx="530" cy="630" r="6" fill="#fff8d4" />
    <circle cx="530" cy="570" r="6" fill="#fff8d4" />
    <circle cx="470" cy="630" r="6" fill="#fff8d4" />
  </g>
  <g>
    <circle cx="1080" cy="430" r="46" fill="url(#coin)" stroke="#f09a00" stroke-width="8" />
    <rect x="1070" y="390" width="20" height="80" rx="6" fill="#f7ce53" />
  </g>
  <g transform="translate(1220 520)">
    <rect x="0" y="120" width="160" height="80" fill="#0f7a2f" stroke="#08551d" stroke-width="10" />
    <rect x="10" y="80" width="140" height="60" fill="#12a13f" stroke="#08551d" stroke-width="8" />
    <rect x="40" y="0" width="80" height="120" fill="#1cc552" stroke="#0a8130" stroke-width="10" rx="14" ry="14" />
    <rect x="20" y="20" width="120" height="30" fill="#32e169" stroke="#0a8130" stroke-width="8" rx="12" ry="12" />
  </g>
  <g transform="translate(1340 440)">
    <rect x="0" y="260" width="110" height="60" fill="#0f7a2f" stroke="#08551d" stroke-width="8" />
    <rect x="15" y="200" width="80" height="70" fill="#1cc552" stroke="#0a8130" stroke-width="8" rx="14" ry="14" />
    <path d="M55 0c-70 120-70 180 0 200 70-20 70-80 0-200z" fill="#d93344" stroke="#a71f30" stroke-width="10" />
    <circle cx="35" cy="100" r="10" fill="#fff" />
    <circle cx="75" cy="60" r="10" fill="#fff" />
    <circle cx="55" cy="140" r="10" fill="#fff" />
  </g>
  <g transform="translate(960 180)">
    <polygon points="80,0 96,54 152,54 106,88 124,140 80,108 36,140 54,88 8,54 64,54" fill="#ffd447" stroke="#f3a000" stroke-width="8" />
    <circle cx="56" cy="70" r="10" fill="#f9f9f9" />
    <circle cx="104" cy="70" r="10" fill="#f9f9f9" />
  </g>
  <g transform="translate(180 260)">
    <polygon points="80,0 96,54 152,54 106,88 124,140 80,108 36,140 54,88 8,54 64,54" fill="#ffd447" stroke="#f3a000" stroke-width="8" />
    <circle cx="56" cy="70" r="10" fill="#f9f9f9" />
    <circle cx="104" cy="70" r="10" fill="#f9f9f9" />
  </g>
  <g opacity="0.7">
    <rect x="180" y="260" width="160" height="140" fill="#000" />
    <rect x="960" y="180" width="160" height="140" fill="#000" />
  </g>
  <g fill="#6dd6ff" opacity="0.9">
    <circle cx="280" cy="160" r="36" />
    <circle cx="340" cy="160" r="32" />
    <circle cx="320" cy="140" r="28" />
    <circle cx="1240" cy="140" r="30" />
    <circle cx="1300" cy="140" r="34" />
    <circle cx="1270" cy="120" r="26" />
  </g>
</svg>
